<svg xmlns="http://www.w3.org/2000/svg" viewBox="0 0 603 566">
  <g transform="translate(0,566) scale(0.1,-0.1)" stroke="none">
    <path d="M2963 5580 c-41 -17 -57 -56 -61 -150 l-4 -88 -91 55 c-119 72 -146 76 -192 30 -65 -65 -44 -110 92 -191 54 -33 100 -61 102 -63 11 -8 -14 -14 -125 -28 -617 -81 -1184 -389 -1581 -860 -171 -203 -340 -490 -424 -720 -18 -49 -34 -91 -35 -93 -1 -2 -15 11 -32 28 -52 52 -126 34 -153 -37 -5 -13 -9 -58 -9 -100 0 -88 7 -87 -116 -13 -49 30 -94 50 -112 50 -85 0 -121 -114 -53 -167 9 -7 55 -36 103 -65 48 -28 85 -55 83 -58 -3 -4 -47 -33 -99 -64 -52 -31 -102 -66 -111 -78 -23 -34 -18 -74 14 -110 43 -48 76 -44 191 25 l95 57 5 -88 c5 -85 25 -142 50 -142 6 0 11 -434 12 -1163 l3 -1162 23 -47 c26 -53 77 -102 131 -127 33 -15 234 -16 2331 -16 2097 0 2298 1 2331 16 54 25 105 74 131 127 l23 47 3 1162 c1 729 6 1163 12 1163 25 0 45 57 50 142 l5 88 95 -57 c115 -69 148 -73 191 -25 32 36 37 76 14 110 -9 12 -59 47 -111 78 -52 31 -96 60 -99 64 -2 3 35 30 83 58 48 29 94 58 103 65 68 53 32 167 -53 167 -18 0 -63 -20 -112 -50 -124 -74 -116 -75 -116 15 0 88 -18 136 -56 154 -42 19 -74 13 -106 -19 -17 -17 -31 -30 -32 -28 -1 2 -17 44 -35 93 -84 230 -253 517 -424 720 -397 471 -964 779 -1581 860 -111 14 -136 20 -125 28 2 2 48 30 102 63 136 81 157 126 92 191 -46 46 -72 42 -193 -31 l-92 -56 0 68 c0 79 -13 133 -38 155 -23 21 -70 29 -99 17z m1733 -1596 c52 -25 78 -68 82 -139 2 -46 -1 -67 -16 -90 -36 -56 -803 -890 -835 -907 -38 -22 -118 -23 -155 -4 -39 20 -553 509 -571 543 -22 42 -19 122 6 164 27 43 89 79 137 79 75 0 97 -17 417 -328 l76 -73 338 371 c187 204 350 378 364 385 35 19 116 18 157 -1z m-2483 -345 c320 -160 585 -296 589 -302 9 -14 -1 -108 -19 -187 -8 -36 -35 -108 -61 -160 -39 -82 -59 -108 -141 -190 -111 -110 -207 -166 -351 -201 -112 -28 -300 -23 -400 11 -177 60 -309 161 -405 309 -169 261 -162 592 19 845 49 69 150 166 172 166 8 0 276 -131 597 -291z m2620 -1551 c47 -25 46 -10 47 -641 l0 -598 -25 -24 -24 -25 -1831 0 -1831 0 -24 25 c-32 31 -34 91 -5 123 11 12 48 30 83 41 184 57 2384 744 2395 748 9 4 12 -43 12 -216 l0 -221 375 0 375 0 0 334 c0 213 4 337 10 341 20 12 375 123 398 124 13 1 33 -4 45 -11z" />
    <path d="M1942 3559 c-202 -100 -184 -399 28 -474 51 -18 95 -19 158 -3 65 16 153 103 171 171 35 123 -22 251 -134 303 -67 32 -162 33 -223 3z" />
  </g>
</svg>
